<?xml version="1.0" encoding="UTF-8"?>
<svg version="1.1" xmlns="http://www.w3.org/2000/svg" width="64" height="64">
<path d="M0 0 C21.12 0 42.24 0 64 0 C64 21.12 64 42.24 64 64 C42.88 64 21.76 64 0 64 C0 42.88 0 21.76 0 0 Z " fill="#E8DFD0" transform="translate(0,0)"/>
<path d="M0 0 C2.74809344 1.74878674 3.79464499 2.67163387 4.75 5.75 C5.41 5.75 6.07 5.75 6.75 5.75 C8.35355101 9.25776784 8.97036864 11.89354879 8.75 15.75 C9.41 15.75 10.07 15.75 10.75 15.75 C11.49805717 22.77639415 11.88794954 29.68391809 11.75 36.75 C10.76 37.08 9.77 37.41 8.75 37.75 C8.75 38.41 8.75 39.07 8.75 39.75 C4.92010894 41.55230168 1.96878192 41.94622241 -2.25 41.75 C-2.25 43.07 -2.25 44.39 -2.25 45.75 C-1.59 45.75 -0.93 45.75 -0.25 45.75 C-0.25 46.74 -0.25 47.73 -0.25 48.75 C0.41 48.75 1.07 48.75 1.75 48.75 C2.41 51.06 3.07 53.37 3.75 55.75 C0.12 55.75 -3.51 55.75 -7.25 55.75 C-7.25 54.43 -7.25 53.11 -7.25 51.75 C-8.24 51.75 -9.23 51.75 -10.25 51.75 C-10.25 53.07 -10.25 54.39 -10.25 55.75 C-11.24 55.75 -12.23 55.75 -13.25 55.75 C-13.25 54.43 -13.25 53.11 -13.25 51.75 C-16.55 51.75 -19.85 51.75 -23.25 51.75 C-23.25 53.07 -23.25 54.39 -23.25 55.75 C-24.57 55.75 -25.89 55.75 -27.25 55.75 C-27.25 51.75 -27.25 51.75 -25.8125 50.1875 C-25.296875 49.713125 -24.78125 49.23875 -24.25 48.75 C-23.92 47.76 -23.59 46.77 -23.25 45.75 C-22.26 45.75 -21.27 45.75 -20.25 45.75 C-20.25 44.43 -20.25 43.11 -20.25 41.75 C-21.24 41.75 -22.23 41.75 -23.25 41.75 C-23.25 41.09 -23.25 40.43 -23.25 39.75 C-24.57 39.75 -25.89 39.75 -27.25 39.75 C-27.25 39.09 -27.25 38.43 -27.25 37.75 C-28.9 37.42 -30.55 37.09 -32.25 36.75 C-34.28248138 30.65255585 -33.044044 24.64053564 -31.8125 18.5 C-31.67779297 17.79359375 -31.54308594 17.0871875 -31.40429688 16.359375 C-30.83238125 13.41331205 -30.20007523 10.6002257 -29.25 7.75 C-28.59 7.75 -27.93 7.75 -27.25 7.75 C-27.25 6.76 -27.25 5.77 -27.25 4.75 C-20.32429486 -2.78033019 -9.25564574 -3.46602633 0 0 Z " fill="#32353E" transform="translate(42.25,4.25)"/>
<path d="M0 0 C1.25425781 0.02707031 2.50851563 0.05414062 3.80078125 0.08203125 C4.75339844 0.11683594 5.70601562 0.15164062 6.6875 0.1875 C6.6875 0.8475 6.6875 1.5075 6.6875 2.1875 C8.9975 2.5175 11.3075 2.8475 13.6875 3.1875 C16.32560009 9.23314605 16.99642376 13.59712648 16.6875 20.1875 C13.3875 19.8575 10.0875 19.5275 6.6875 19.1875 C6.6875 19.8475 6.6875 20.5075 6.6875 21.1875 C7.3475 21.1875 8.0075 21.1875 8.6875 21.1875 C8.6875 22.1775 8.6875 23.1675 8.6875 24.1875 C9.3475 24.1875 10.0075 24.1875 10.6875 24.1875 C10.6875 26.4975 10.6875 28.8075 10.6875 31.1875 C10.0275 31.1875 9.3675 31.1875 8.6875 31.1875 C8.6875 32.1775 8.6875 33.1675 8.6875 34.1875 C5.97870665 35.54189668 3.67816732 35.25251451 0.6875 35.1875 C0.6875 36.5075 0.6875 37.8275 0.6875 39.1875 C-0.3025 39.1875 -1.2925 39.1875 -2.3125 39.1875 C-2.3125 37.5375 -2.3125 35.8875 -2.3125 34.1875 C-3.405625 34.249375 -4.49875 34.31125 -5.625 34.375 C-9.3125 34.1875 -9.3125 34.1875 -11.25 33.125 C-12.86729605 30.17581309 -12.49880138 27.47882441 -12.3125 24.1875 C-11.6525 24.1875 -10.9925 24.1875 -10.3125 24.1875 C-10.3125 23.1975 -10.3125 22.2075 -10.3125 21.1875 C-9.6525 21.1875 -8.9925 21.1875 -8.3125 21.1875 C-7.9825 19.8675 -7.6525 18.5475 -7.3125 17.1875 C-7.9725 17.1875 -8.6325 17.1875 -9.3125 17.1875 C-9.3125 17.8475 -9.3125 18.5075 -9.3125 19.1875 C-13.2725 19.6825 -13.2725 19.6825 -17.3125 20.1875 C-16.9825 16.2275 -16.6525 12.2675 -16.3125 8.1875 C-15.6525 8.1875 -14.9925 8.1875 -14.3125 8.1875 C-14.085625 7.424375 -13.85875 6.66125 -13.625 5.875 C-10.75730427 0.00305159 -6.03175739 -0.16911469 0 0 Z " fill="#BDBEC0" transform="translate(31.3125,6.8125)"/>
<path d="M0 0 C0.66 0 1.32 0 2 0 C1.67 1.32 1.34 2.64 1 4 C0.34 4 -0.32 4 -1 4 C-1 4.99 -1 5.98 -1 7 C-1.66 7 -2.32 7 -3 7 C-2.67 9.97 -2.34 12.94 -2 16 C0.97 16.33 3.94 16.66 7 17 C7 18.65 7 20.3 7 22 C7.99 22 8.98 22 10 22 C10 20.68 10 19.36 10 18 C13.96 17.505 13.96 17.505 18 17 C18 16.01 18 15.02 18 14 C18.66 14 19.32 14 20 14 C20 11.69 20 9.38 20 7 C21.32 7 22.64 7 24 7 C24.02708567 8.60407328 24.04643483 10.2082785 24.0625 11.8125 C24.07410156 12.70582031 24.08570312 13.59914063 24.09765625 14.51953125 C24 17 24 17 23 20 C22.01 20 21.02 20 20 20 C20 20.66 20 21.32 20 22 C19.34 22 18.68 22 18 22 C18 23.32 18 24.64 18 26 C18.66 26 19.32 26 20 26 C20 26.99 20 27.98 20 29 C20.66 29 21.32 29 22 29 C22.66 31.31 23.32 33.62 24 36 C20.37 36 16.74 36 13 36 C13 34.68 13 33.36 13 32 C12.01 32 11.02 32 10 32 C10 33.32 10 34.64 10 36 C9.01 36 8.02 36 7 36 C7 34.68 7 33.36 7 32 C3.7 32 0.4 32 -3 32 C-3 33.32 -3 34.64 -3 36 C-4.32 36 -5.64 36 -7 36 C-7 32 -7 32 -5.5625 30.4375 C-5.046875 29.963125 -4.53125 29.48875 -4 29 C-3.67 28.01 -3.34 27.02 -3 26 C-2.01 26 -1.02 26 0 26 C0 24.68 0 23.36 0 22 C-0.99 22 -1.98 22 -3 22 C-3 21.34 -3 20.68 -3 20 C-4.32 19.67 -5.64 19.34 -7 19 C-6.67 15.04 -6.34 11.08 -6 7 C-5.34 7 -4.68 7 -4 7 C-4 5.35 -4 3.7 -4 2 C-2.68 2 -1.36 2 0 2 C0 1.34 0 0.68 0 0 Z " fill="#32353F" transform="translate(22,24)"/>
<path d="M0 0 C1.25425781 0.02707031 2.50851563 0.05414062 3.80078125 0.08203125 C4.75339844 0.11683594 5.70601562 0.15164062 6.6875 0.1875 C6.14026317 3.56212715 5.6326 5.26985 3.6875 8.1875 C3.0275 8.1875 2.3675 8.1875 1.6875 8.1875 C1.6875 10.4975 1.6875 12.8075 1.6875 15.1875 C1.0275 15.1875 0.3675 15.1875 -0.3125 15.1875 C-0.6425 12.2175 -0.9725 9.2475 -1.3125 6.1875 C-2.3025 5.8575 -3.2925 5.5275 -4.3125 5.1875 C-4.6425 4.5275 -4.9725 3.8675 -5.3125 3.1875 C-6.3025 3.1875 -7.2925 3.1875 -8.3125 3.1875 C-9.82766221 6.21782442 -9.48278053 8.83864962 -9.3125 12.1875 C-8.4150173 15.02128132 -8.4150173 15.02128132 -7.3125 17.1875 C-7.9725 17.1875 -8.6325 17.1875 -9.3125 17.1875 C-9.3125 17.8475 -9.3125 18.5075 -9.3125 19.1875 C-13.2725 19.6825 -13.2725 19.6825 -17.3125 20.1875 C-16.9825 16.2275 -16.6525 12.2675 -16.3125 8.1875 C-15.6525 8.1875 -14.9925 8.1875 -14.3125 8.1875 C-14.085625 7.424375 -13.85875 6.66125 -13.625 5.875 C-10.75730427 0.00305159 -6.03175739 -0.16911469 0 0 Z " fill="#E7DFD1" transform="translate(31.3125,6.8125)"/>
<path d="M0 0 C0.33 0.66 0.66 1.32 1 2 C3.12576782 2.46651207 3.12576782 2.46651207 5.5625 2.625 C6.38878906 2.69976563 7.21507812 2.77453125 8.06640625 2.8515625 C8.70449219 2.90054687 9.34257813 2.94953125 10 3 C10.33 4.32 10.66 5.64 11 7 C11.99 7 12.98 7 14 7 C14 10.3 14 13.6 14 17 C13.01 17.33 12.02 17.66 11 18 C11 18.66 11 19.32 11 20 C7.62902617 21.49821059 5.79557881 22 2 22 C2 21.34 2 20.68 2 20 C2.99 20 3.98 20 5 20 C5.33 15.71 5.66 11.42 6 7 C4.02 7 2.04 7 0 7 C0 6.01 0 5.02 0 4 C-0.66 4 -1.32 4 -2 4 C-2 3.34 -2 2.68 -2 2 C-1.34 2 -0.68 2 0 2 C0 1.34 0 0.68 0 0 Z " fill="#5D5B58" transform="translate(40,24)"/>
<path d="M0 0 C1.65 0 3.3 0 5 0 C5 1.32 5 2.64 5 4 C4.34 4 3.68 4 3 4 C3 7.96 3 11.92 3 16 C0.0625 15.1875 0.0625 15.1875 -3 14 C-4.1577506 10.52674819 -4.06866652 7.63932552 -4 4 C-2.68 4 -1.36 4 0 4 C0 2.68 0 1.36 0 0 Z " fill="#625F5A" transform="translate(13,27)"/>
<path d="M0 0 C0.99 0 1.98 0 3 0 C5.5915262 5.93891422 6.40368295 10.54107286 6 17 C3.69 16.67 1.38 16.34 -1 16 C-2 13 -2 13 -1.0625 10.8125 C-0.5365625 9.9153125 -0.5365625 9.9153125 0 9 C0.66 9 1.32 9 2 9 C2 6.69 2 4.38 2 2 C1.34 2 0.68 2 0 2 C0 1.34 0 0.68 0 0 Z " fill="#E8E0D2" transform="translate(42,10)"/>
<path d="M0 0 C8.71428571 1.85714286 8.71428571 1.85714286 11 5 C10.67 5.99 10.34 6.98 10 8 C7.36 7.34 4.72 6.68 2 6 C2 5.34 2 4.68 2 4 C1.34 4 0.68 4 0 4 C0 2.68 0 1.36 0 0 Z " fill="#404248" transform="translate(36,3)"/>
<path d="M0 0 C0.99 0 1.98 0 3 0 C3 1.32 3 2.64 3 4 C3.66 4 4.32 4 5 4 C5 4.66 5 5.32 5 6 C3.35 6 1.7 6 0 6 C0 7.32 0 8.64 0 10 C-1.32 10 -2.64 10 -4 10 C-4 6 -4 6 -2.5625 4.4375 C-2.046875 3.963125 -1.53125 3.48875 -1 3 C-0.67 2.01 -0.34 1.02 0 0 Z " fill="#2A2D37" transform="translate(19,50)"/>
<path d="M0 0 C1.32 0.33 2.64 0.66 4 1 C4.33 3.97 4.66 6.94 5 10 C3.68 9.34 2.36 8.68 1 8 C0.16113831 5.32209537 0.18233586 2.8262059 0 0 Z " fill="#64625C" transform="translate(23,14)"/>
<path d="M0 0 C-0.33 2.64 -0.66 5.28 -1 8 C-1.66 8 -2.32 8 -3 8 C-3.33 8.99 -3.66 9.98 -4 11 C-4.33 11 -4.66 11 -5 11 C-4.91291331 9.54054712 -4.80473093 8.08234132 -4.6875 6.625 C-4.62949219 5.81289063 -4.57148437 5.00078125 -4.51171875 4.1640625 C-3.93288652 1.71617658 -2.91559758 0 0 0 Z " fill="#67645F" transform="translate(41,13)"/>
<path d="M0 0 C2.97 0 5.94 0 9 0 C9 0.99 9 1.98 9 3 C6.03 3 3.06 3 0 3 C0 2.01 0 1.02 0 0 Z " fill="#D2D2D3" transform="translate(20,57)"/>
<path d="M0 0 C1.65 0 3.3 0 5 0 C5 1.65 5 3.3 5 5 C3.35 5 1.7 5 0 5 C0 3.35 0 1.7 0 0 Z " fill="#F5F5F5" transform="translate(33,31)"/>
<path d="M0 0 C1.65 0 3.3 0 5 0 C5 1.65 5 3.3 5 5 C3.35 5 1.7 5 0 5 C0 3.35 0 1.7 0 0 Z " fill="#F5F5F5" transform="translate(23,31)"/>
<path d="M0 0 C0.66 0 1.32 0 2 0 C1.67 1.32 1.34 2.64 1 4 C0.34 4 -0.32 4 -1 4 C-1.33 4.99 -1.66 5.98 -2 7 C-2.66 6.67 -3.32 6.34 -4 6 C-4 4.68 -4 3.36 -4 2 C-2.68 2 -1.36 2 0 2 C0 1.34 0 0.68 0 0 Z " fill="#3B3F48" transform="translate(22,24)"/>
</svg>
